<?xml version="1.0" encoding="UTF-8" standalone="no"?>
<!-- Created with Inkscape (http://www.inkscape.org/) -->

<svg
   version="1.1"
   id="svg870"
   width="36"
   height="36"
   viewBox="0 0 36 36"
   sodipodi:docname="clear.svg"
   inkscape:export-filename="/home/jocke/git/nb-http-by-proxy/core/src/main/resources/se/jocke/nb/http/bp/core/window/clear.png"
   inkscape:export-xdpi="96"
   inkscape:export-ydpi="96"
   inkscape:version="1.1.1 (eb90963e84, 2021-10-02)"
   xmlns:inkscape="http://www.inkscape.org/namespaces/inkscape"
   xmlns:sodipodi="http://sodipodi.sourceforge.net/DTD/sodipodi-0.dtd"
   xmlns="http://www.w3.org/2000/svg"
   xmlns:svg="http://www.w3.org/2000/svg">
  <defs
     id="defs874" />
  <sodipodi:namedview
     id="namedview872"
     pagecolor="#ffffff"
     bordercolor="#666666"
     borderopacity="1.0"
     inkscape:pageshadow="2"
     inkscape:pageopacity="0.0"
     inkscape:pagecheckerboard="0"
     showgrid="false"
     inkscape:zoom="23.166667"
     inkscape:cx="17.978417"
     inkscape:cy="18"
     inkscape:window-width="1876"
     inkscape:window-height="1043"
     inkscape:window-x="0"
     inkscape:window-y="0"
     inkscape:window-maximized="1"
     inkscape:current-layer="g876" />
  <g
     inkscape:groupmode="layer"
     inkscape:label="Image"
     id="g876">
    <path
       id="path1062"
       style="opacity:0.84;fill:#333333;stroke:#ffffff;stroke-width:0.510235"
       d="M 18.0625 0.35351562 A 17.623989 17.623989 0 0 0 0.43945312 17.978516 A 17.623989 17.623989 0 0 0 18.0625 35.601562 A 17.623989 17.623989 0 0 0 35.6875 17.978516 A 17.623989 17.623989 0 0 0 18.0625 0.35351562 z M 18.0625 6.9394531 A 11.037883 11.037883 0 0 1 29.101562 17.978516 A 11.037883 11.037883 0 0 1 28.755859 20.560547 L 10.523438 9.9648438 A 11.037883 11.037883 0 0 1 18.0625 6.9394531 z M 7.3730469 15.394531 L 25.603516 25.988281 A 11.037883 11.037883 0 0 1 18.0625 29.015625 A 11.037883 11.037883 0 0 1 7.0253906 17.978516 A 11.037883 11.037883 0 0 1 7.3730469 15.394531 z " />
  </g>
</svg>
